<svg id="Calque_1" data-name="Calque 1" xmlns="http://www.w3.org/2000/svg" xmlns:xlink="http://www.w3.org/1999/xlink" viewBox="0 0 287.6 289"><defs><style>.cls-1,.cls-2,.cls-3,.cls-4,.cls-5,.cls-7{stroke:#000;stroke-miterlimit:10;}.cls-1{fill:url(#Dégradé_sans_nom_7);}.cls-2{fill:url(#Dégradé_sans_nom_161);}.cls-3{fill:url(#Dégradé_sans_nom_9);}.cls-4{fill:url(#Dégradé_sans_nom_160);}.cls-5{fill:url(#Dégradé_sans_nom_19);}.cls-6{font-size:67.25px;fill:#fff;font-family:BookAntiqua-Bold, Book Antiqua;font-weight:700;}.cls-7{fill:url(#Dégradé_sans_nom_7-2);}</style><linearGradient id="Dégradé_sans_nom_7" y1="115.45" x2="249.15" y2="115.45" gradientUnits="userSpaceOnUse"><stop offset="0" stop-color="lime"/><stop offset="1"/></linearGradient><linearGradient id="Dégradé_sans_nom_161" x1="13.02" y1="132.14" x2="261.37" y2="132.14" gradientUnits="userSpaceOnUse"><stop offset="0" stop-color="olive"/><stop offset="1"/></linearGradient><linearGradient id="Dégradé_sans_nom_9" x1="26.01" y1="148.83" x2="273.61" y2="148.83" gradientUnits="userSpaceOnUse"><stop offset="0" stop-color="red"/><stop offset="1"/></linearGradient><linearGradient id="Dégradé_sans_nom_160" x1="41.7" y1="165.99" x2="280.06" y2="165.99" gradientUnits="userSpaceOnUse"><stop offset="0" stop-color="#803c60"/><stop offset="0.9" stop-color="#1a496c"/><stop offset="1" stop-color="gray"/></linearGradient><linearGradient id="Dégradé_sans_nom_19" x1="57.79" y1="183.66" x2="287.1" y2="183.66" gradientUnits="userSpaceOnUse"><stop offset="0.9" stop-color="#0077bf"/><stop offset="1" stop-color="#fff"/></linearGradient><linearGradient id="Dégradé_sans_nom_7-2" x1="-70.07" y1="-13.14" x2="-70.07" y2="-13.14" xlink:href="#Dégradé_sans_nom_7"/></defs><title>logo</title><path class="cls-1" d="M191.38,230.28,15.16,184.12C4.47,181.33-2,169.86.58,158.52L33.66,16.1C36.29,4.75,47.09-2.18,57.77.62L234,46.78c10.68,2.8,17.2,14.26,14.57,25.61L215.49,214.81C212.86,226.15,202.06,233.08,191.38,230.28Z" transform="translate(0.5 0.5)"/><path class="cls-2" d="M206.78,249.94,29.62,210.87c-11.24-2.46-18.48-14.13-16.17-26.08L43.05,31.53c2.31-12,13.31-19.64,24.55-17.18L244.76,53.41c11.25,2.46,18.49,14.14,16.18,26.08l-29.6,153.27C229,244.7,218,252.39,206.78,249.94Z" transform="translate(0.5 0.5)"/><path class="cls-3" d="M222.19,269.59l-178.1-32c-11.81-2.12-19.77-14-17.77-26.55L52.43,47c2-12.55,13.19-21,25-18.88l178.1,32c11.81,2.12,19.77,14,17.77,26.55L247.19,250.71C245.19,263.25,234,271.71,222.19,269.59Z" transform="translate(0.5 0.5)"/><path class="cls-4" d="M249.53,278.79l-194-16C47,261.75,40.8,253.63,41.8,244.67L54.86,67.5c1-9,8.77-15.36,17.37-14.3l194,16C274.79,70.24,281,78.36,280,87.32L266.9,264.49C265.9,273.45,258.12,279.85,249.53,278.79Z" transform="translate(0.5 0.5)"/><rect class="cls-5" x="57.79" y="78.81" width="229.32" height="209.69" rx="9.73"/><text class="cls-6" transform="translate(98.29 202.86) scale(0.94 1)">cards</text><path class="cls-7" d="M-70.07-13.14" transform="translate(0.5 0.5)"/></svg>